<?xml version="1.0" encoding="utf-8"?>
<!-- Generator: Adobe Illustrator 14.0.0, SVG Export Plug-In . SVG Version: 6.00 Build 43363)  -->
<!DOCTYPE svg PUBLIC "-//W3C//DTD SVG 1.1//EN" "http://www.w3.org/Graphics/SVG/1.1/DTD/svg11.dtd">
<svg version="1.1" id="Calque_1" xmlns="http://www.w3.org/2000/svg" xmlns:xlink="http://www.w3.org/1999/xlink" x="0px" y="0px"
	 width="800px" height="600px" viewBox="0 0 800 600" enable-background="new 0 0 800 600" xml:space="preserve">
<g>
	<g>
		<g>
			<path d="M523.771,256.086c-3.355-5.034-8.858-5.042-12.229-0.017l-16.646,24.816c-3.369,5.024-3.381,13.254-0.025,18.288
				l48.732,73.1c3.355,5.033,1.151,9.152-4.898,9.152h-219.23c-6.05,0-13.746,4.118-17.102,9.152L197.708,547.576
				c-3.356,5.033-1.151,9.152,4.898,9.152h510.592c6.05,0,8.254-4.118,4.898-9.152L523.771,256.086z M280.857,512.902
				c-6.05,0-8.254-4.119-4.898-9.152l46.23-69.347c3.356-5.033,11.052-9.152,17.102-9.152h228.791c6.05,0,13.756,4.111,17.125,9.137
				l46.504,69.378c3.369,5.025,1.175,9.137-4.875,9.137H280.857z"/>
		</g>
		<g>
			<g>
				<g>
					<path d="M84.502,556.729c-6.05,0-8.254-4.118-4.898-9.152L392.037,78.925c3.356-5.034,8.847-5.034,12.203,0l93.71,140.564
						c3.355,5.034,3.355,13.271,0,18.305l-16.608,24.912c-3.355,5.034-8.848,5.034-12.203,0l-64.492-96.738
						c-3.355-5.034-8.847-5.034-12.203,0l-88.3,132.449c-3.356,5.034-1.151,9.152,4.898,9.152H464.24c6.05,0,11,4.95,11,11v23.6
						c0,6.05-4.95,11-11,11H278.642c-6.05,0-13.746,4.119-17.102,9.152L138.038,547.576c-3.356,5.033-11.052,9.152-17.102,9.152
						H84.502z"/>
				</g>
			</g>
		</g>
	</g>
</g>
<polygon fill="none" stroke="#000000" stroke-width="14" stroke-linejoin="round" points="25.627,579.259 397.822,21.27 
	772.072,579.259 "/>
</svg>
